<svg width="46" height="26" viewBox="0 0 46 26" fill="none" xmlns="http://www.w3.org/2000/svg">
<path d="M33.4929 0C30.5886 0 28.5275 0.735849 25.998 2.64906C24.4521 3.67925 23.7026 4.02264 23.0468 4.02264C22.2505 4.02264 21.501 3.67925 20.0957 2.64906C17.5662 0.735849 15.4582 0 12.6008 0C5.52749 0 0 5.69057 0 13C0 20.3094 5.4338 26 12.5071 26C15.3646 26 17.4257 25.2641 20.002 23.3509C21.4073 22.2717 22.1568 21.9774 22.9532 21.9774C23.8432 21.9774 24.5458 22.3208 25.9043 23.3509C28.4338 25.2641 30.5417 26 33.3992 26C40.4725 26 46 20.3094 46 13C46 5.69057 40.5194 0 33.4929 0ZM33.446 19.034C31.8065 19.034 29.3707 18.0038 27.5438 16.5811C25.8106 15.2075 24.4521 14.6189 23 14.6189C21.5479 14.6189 20.1894 15.2075 18.4562 16.5811C16.6293 18.0038 14.1935 18.9849 12.554 18.9849C9.50916 18.9849 7.12016 16.3358 7.12016 12.9509C7.12016 9.56604 9.556 6.91698 12.554 6.91698C14.1935 6.91698 16.6293 7.89811 18.4562 9.32075C20.2363 10.6943 21.6415 11.283 23 11.283C24.4521 11.283 25.8106 10.6943 27.5438 9.32075C29.3707 7.89811 31.8065 6.86792 33.446 6.86792C36.4908 6.86792 38.8798 9.51698 38.8798 12.9019C38.8798 16.2868 36.4908 19.034 33.446 19.034Z" fill="#45C639"/>
</svg>
